<svg width="56" height="56" viewBox="0 0 56 56" fill="none" xmlns="http://www.w3.org/2000/svg">
<path d="M38.898 25.7456C39.3257 25.3179 39.3257 24.6231 38.898 24.1959C38.4712 23.7674 37.779 23.7674 37.3514 24.1959C36.9245 24.6231 36.9245 25.3179 37.3514 25.7456C37.779 26.1741 38.4712 26.1741 38.898 25.7456Z" fill="url(#paint0_linear)"/>
<path d="M1.09375 56.1639H54.9063C55.3485 56.1639 55.7476 55.8972 55.9168 55.4875C56.086 55.0779 55.9924 54.6066 55.6796 54.2932L1.86707 0.375753C1.55432 0.0619679 1.08392 -0.0313541 0.67505 0.138167C0.266602 0.307687 0 0.707089 0 1.15058V55.068C0 55.6733 0.489625 56.1639 1.09375 56.1639ZM2.1875 3.79613L10.9854 12.6112L8.66456 14.9353C8.23732 15.3634 8.23732 16.0573 8.66456 16.4854C9.09095 16.913 9.78395 16.9139 10.2112 16.4854L12.532 14.1609L17.1723 18.8107L14.8519 21.1348C14.4247 21.5629 14.4247 22.2568 14.8515 22.6849C15.2783 23.1125 15.9713 23.1134 16.3986 22.6849L18.7194 20.3604L23.3593 25.0098L21.0393 27.3347C20.6121 27.7623 20.6121 28.4563 21.0393 28.8843C21.4666 29.3124 22.1587 29.3124 22.586 28.8843L24.9063 26.5594L29.5467 31.2093L27.2267 33.5342C26.7995 33.9618 26.7995 34.6558 27.2267 35.0838C27.654 35.5119 28.3461 35.5119 28.7734 35.0838L31.0937 32.7594L35.7341 37.4083L33.4141 39.7337C32.9869 40.1618 32.9869 40.8557 33.4141 41.2838C33.8414 41.7114 34.5339 41.7114 34.9612 41.2833L37.2807 38.9584L41.921 43.6078L39.6011 45.9332C39.1742 46.3613 39.1742 47.0552 39.6015 47.4828C40.0283 47.9109 40.7213 47.9109 41.1486 47.4828L43.4681 45.1575L52.2655 53.9721H2.1875V3.79613Z" fill="url(#paint1_linear)"/>
<path d="M11.2733 22.8405C10.9606 22.5271 10.4902 22.4334 10.0813 22.6029C9.67285 22.7724 9.40625 23.1723 9.40625 23.6153V45.6436C9.40625 46.2489 9.89587 46.7394 10.5 46.7394H32.4852C32.9279 46.7394 33.3265 46.4727 33.4961 46.0631C33.6653 45.6538 33.5713 45.1821 33.259 44.8687L11.2733 22.8405ZM11.5937 44.5481V26.2613L29.8448 44.5481H11.5937Z" fill="url(#paint2_linear)"/>
<path d="M34.2581 22.6465C34.6853 23.0746 35.3774 23.0746 35.8051 22.6465C36.2319 22.2189 36.2319 21.5249 35.8051 21.0969L31.1639 16.447C30.7371 16.019 30.0446 16.019 29.6173 16.447C29.1901 16.8747 29.1901 17.5686 29.6173 17.9967L34.2581 22.6465Z" fill="url(#paint3_linear)"/>
<path d="M16.6028 11.2238L47.3047 41.9854C48.5865 43.2705 50.6629 43.2705 51.9455 41.9854L55.0387 38.8865C56.3175 37.6052 56.3175 35.5192 55.0387 34.2362L24.3372 3.47468C24.2172 3.35439 24.0706 3.26364 23.9095 3.21013L14.6289 0.110814C14.2363 -0.0201791 13.8026 0.0821325 13.5099 0.375797C13.2168 0.669033 13.1147 1.10311 13.2455 1.49694L16.3387 10.7957C16.3926 10.9571 16.4827 11.1035 16.6028 11.2238ZM53.4912 35.7859C53.9181 36.2136 53.9181 36.9096 53.4917 37.3364L50.3988 40.4357C49.9716 40.8638 49.279 40.8642 48.8513 40.4357L46.4814 38.0612L51.1217 33.4113L53.4912 35.7859ZM49.5751 31.8617L44.9343 36.5115L43.3877 34.9614L48.0285 30.3124L49.5751 31.8617ZM24.2877 6.52477L46.4814 28.7619L41.8411 33.4118L19.6469 11.1742L24.2877 6.52477ZM22.6244 5.09112L18.2161 9.50765L16.0123 2.88307L22.6244 5.09112Z" fill="url(#paint4_linear)"/>
<defs>
<linearGradient id="paint0_linear" x1="39.2439" y1="26.0669" x2="36.7524" y2="25.896" gradientUnits="userSpaceOnUse">
<stop stop-color="#A2874C"/>
<stop offset="1" stop-color="#D5BE6D"/>
</linearGradient>
<linearGradient id="paint1_linear" x1="56.6437" y1="56.1639" x2="-7.13824" y2="51.7875" gradientUnits="userSpaceOnUse">
<stop stop-color="#A2874C"/>
<stop offset="1" stop-color="#D5BE6D"/>
</linearGradient>
<linearGradient id="paint2_linear" x1="33.8571" y1="46.7394" x2="6.32496" y2="44.8503" gradientUnits="userSpaceOnUse">
<stop stop-color="#A2874C"/>
<stop offset="1" stop-color="#D5BE6D"/>
</linearGradient>
<linearGradient id="paint3_linear" x1="36.2037" y1="22.9676" x2="28.4265" y2="22.4339" gradientUnits="userSpaceOnUse">
<stop stop-color="#A2874C"/>
<stop offset="1" stop-color="#D5BE6D"/>
</linearGradient>
<linearGradient id="paint4_linear" x1="56.4898" y1="42.9492" x2="7.7327" y2="39.6039" gradientUnits="userSpaceOnUse">
<stop stop-color="#A2874C"/>
<stop offset="1" stop-color="#D5BE6D"/>
</linearGradient>
</defs>
</svg>
