<svg xmlns="http://www.w3.org/2000/svg"><symbol id="arrow-left" viewBox="0 0 8 12"><path d="M7.41 10.59L2.83 6l4.58-4.59L6 0 0 6l6 6 1.41-1.41z" fill="#fff"/></symbol><symbol id="arrow-right" viewBox="0 0 8 12"><path d="M.59 10.59L5.17 6 .59 1.41 2 0l6 6-6 6-1.41-1.41z" fill="#fff"/></symbol><symbol id="logo"><path d="M0 18.217c2.042.107 4.06.186 6.039.24 1.979.053 3.869.08 5.669.08 1.315 0 4.252-.053 8.785-.16a508.17 508.17 0 016.064-.16l.038 3.276h-.561c-2.196 0-3.754.28-4.66.827-.92.546-1.367 1.464-1.367 2.77 0 .306.103.852.295 1.64.204.77.472 1.676.83 2.69l10.072 27.783 8.34-22.043a53.781 53.781 0 001.723-5.541c.421-1.719.638-3.05.638-3.984 0-1.544-.46-2.61-1.392-3.208-.919-.6-2.63-.92-5.12-.974l.038-3.236c2.592.134 4.585.213 5.99.253 1.39.04 2.705.066 3.93.066 1.214 0 2.517-.026 3.908-.066 1.38-.04 3.244-.119 5.593-.253v3.276c-2.221.134-3.946.693-5.158 1.692-1.226 1.013-2.54 3.317-3.934 6.94L28.88 73.12h-3.754L7.66 27.314c-.868-2.318-1.825-3.836-2.872-4.555-1.047-.72-2.642-1.12-4.788-1.226zm57.61 53.864v-3.196c2.987-.107 4.94-.627 5.873-1.558.932-.932 1.404-3.038 1.404-6.286V28.592c0-2.942-.447-4.86-1.328-5.753-.88-.892-2.604-1.346-5.171-1.346h-.779v-3.276c2.49.08 4.865.134 7.126.173 2.259.04 4.378.068 6.384.068 2.094 0 4.265-.028 6.524-.068a420.41 420.41 0 006.932-.173v3.276h-.855c-2.336 0-3.996.534-4.966 1.586-.97 1.053-1.456 2.89-1.456 5.513v32.449c0 2.969.498 4.98 1.493 6.032.997 1.052 2.925 1.652 5.784 1.812v3.196a1010.65 1010.65 0 00-7.979-.185 304.51 304.51 0 00-11.632 0c-2.26.039-4.712.106-7.355.185zm32.864.08v-3.356c2.797-.08 4.686-.587 5.657-1.52.983-.945 1.469-2.796 1.469-5.58V28.234c0-2.677-.5-4.516-1.494-5.502-1.01-.985-2.886-1.532-5.632-1.638v-2.958c1.877.107 3.882.188 6.028.24 2.145.054 4.532.082 7.15.082a251 251 0 006.41-.081c2.093-.053 4.136-.134 6.167-.24v3.157h-.563c-2.324 0-3.92.52-4.762 1.572-.855 1.052-1.276 3.25-1.276 6.58v17.475l7.047-8.39c3.613-4.263 6.154-7.473 7.61-9.632 1.456-2.158 2.196-3.742 2.196-4.767 0-.987-.46-1.72-1.366-2.2-.92-.479-2.299-.718-4.137-.718v-3.078c1.545.107 3.141.188 4.763.24 1.633.054 3.78.082 6.421.082 1.598 0 3.078-.028 4.43-.081a85.425 85.425 0 003.921-.24v3.038c-1.85.08-3.472.506-4.89 1.304-1.404.799-2.975 2.225-4.698 4.317l-9.5 11.507 19.229 25.934c1.046 1.465 2.132 2.557 3.243 3.302 1.11.747 2.247 1.133 3.422 1.186v3.436a356.536 356.536 0 00-6.844-.24 239.52 239.52 0 00-5.874-.08c-2.527 0-4.863.027-7.035.08-2.17.054-4.226.133-6.14.24v-3.356h1.007c1.406 0 2.49-.214 3.257-.639.778-.44 1.16-1.04 1.16-1.826 0-.44-.101-.945-.317-1.518a6.048 6.048 0 00-.882-1.597l-11.67-16.144-4.353 5.34v8.899c0 3.302.46 5.34 1.365 6.14.92.786 2.784 1.237 5.606 1.345v3.356a116.795 116.795 0 00-5.312-.24c-2.069-.053-4.596-.08-7.558-.08-3.053 0-5.632.027-7.751.08-2.12.054-3.958.133-5.504.24zm73.712-9.87V22.693c-.395-.053-.817-.08-1.251-.093a62.19 62.19 0 00-1.89-.026c-4.29 0-7.393.811-9.308 2.45-1.903 1.626-3.167 4.503-3.793 8.62h-3.064l.639-15.426c2.643.134 5.554.226 8.734.293 3.179.066 6.92.107 11.235.107 6.142 0 11.62-.027 16.446-.08a834.47 834.47 0 0013.216-.24l.676 15.345h-3c-.613-4.037-1.89-6.913-3.83-8.605-1.93-1.693-4.917-2.544-8.965-2.544-.69 0-1.825.052-3.396.16l-.27.04v39.599c0 2.53.538 4.221 1.61 5.115 1.074.879 3.168 1.371 6.282 1.478v3.276a224.859 224.859 0 00-6.23-.24c-2.132-.053-4.342-.08-6.64-.08-2.094 0-4.405.027-6.907.08-2.503.054-5.108.133-7.803.24v-3.316c3.078-.16 5.095-.653 6.067-1.505.956-.839 1.442-2.517 1.442-5.048zm50.244-16.889c0 7.859 1.314 13.8 3.957 17.835 2.643 4.036 6.524 6.047 11.658 6.047 5.082 0 8.835-1.957 11.249-5.874 2.412-3.915 3.626-9.989 3.626-18.248 0-7.924-1.315-13.958-3.958-18.061-2.642-4.115-6.525-6.166-11.658-6.166-5.106 0-8.862 1.97-11.273 5.927-2.402 3.956-3.6 10.136-3.6 18.54zM229.074 73.2c-8.502 0-15.385-2.597-20.633-7.779-5.248-5.194-7.878-11.947-7.878-20.271 0-8.326 2.694-15.092 8.082-20.313 5.39-5.208 12.424-7.819 21.106-7.819 4.393 0 8.313.667 11.785 1.985 3.473 1.332 6.589 3.356 9.359 6.086 2.644 2.639 4.623 5.61 5.925 8.925 1.315 3.316 1.966 6.966 1.966 10.975 0 4.117-.69 7.847-2.055 11.216-1.38 3.37-3.448 6.367-6.219 9.004a27.617 27.617 0 01-9.5 6.006c-3.535 1.32-7.519 1.985-11.938 1.985zm54.15-29.168c.294.025.64.038 1.009.052.37.014.895.026 1.57.026 4.022 0 6.96-.892 8.85-2.69 1.876-1.798 2.82-4.596 2.82-8.405 0-3.902-.868-6.753-2.603-8.564-1.724-1.812-4.469-2.717-8.211-2.717-1.443 0-2.374.199-2.795.586-.422.386-.64 1.24-.64 2.544zM263.613 72.08l-.037-3.356c3.178 0 5.297-.507 6.345-1.519 1.06-1.025 1.583-3.103 1.583-6.26V27.9c0-2.665-.512-4.408-1.52-5.247-1.02-.826-3.153-1.266-6.408-1.32v-3.197c1.39.055 2.807.095 4.25.121 1.431.027 3.346.04 5.747.04 1.57 0 4.098-.04 7.583-.12 3.5-.08 6.219-.12 8.16-.12 7.214 0 12.526 1.106 15.961 3.304 3.433 2.198 5.144 5.62 5.144 10.283 0 3.596-1.11 6.565-3.331 8.924-2.223 2.358-5.376 3.889-9.461 4.582 1.3.572 3.32 2.85 6.064 6.82.319.466.574.825.74 1.091l7.445 10.856c1.084 1.61 2.208 2.863 3.395 3.729 1.188.879 2.427 1.385 3.729 1.545v2.97c-1.098-.107-2.503-.186-4.213-.24-1.711-.053-3.576-.08-5.593-.08a71.5 71.5 0 00-2.974.055 71.39 71.39 0 00-2.95.185l-12.309-18.474c-1.71-2.583-3.014-4.221-3.932-4.942-.907-.719-1.929-1.078-3.052-1.078-.077 0-.192.026-.357.066a1.646 1.646 0 01-.396.054v13.745c0 2.797.497 4.702 1.507 5.728.995 1.026 2.872 1.545 5.63 1.545h.37v3.356c-4.265-.079-7.827-.146-10.661-.185a453.306 453.306 0 00-6.346-.054c-2.516 0-4.507.013-5.976.054-1.455.039-2.835.106-4.137.185zm65.362 0v-3.276c3-.053 5.005-.547 6-1.478 1.008-.947 1.507-2.785 1.507-5.541V50.983L324.3 28.007a34.665 34.665 0 00-1.698-2.97c-.563-.853-1.035-1.492-1.444-1.905-.472-.466-1.071-.851-1.787-1.16-.729-.292-1.609-.519-2.657-.678v-3.077c2.274.08 4.406.134 6.423.173 2.006.04 3.934.068 5.772.068 2.144 0 4.303-.028 6.46-.068 2.158-.039 4.304-.093 6.448-.173l.039 3.117c-2.018.053-3.473.305-4.393.786-.906.466-1.353 1.185-1.353 2.184 0 .573.205 1.372.613 2.41.408 1.039 1.173 2.666 2.297 4.875l7.509 14.28 7.546-12.986c1.046-1.8 1.812-3.304 2.285-4.53.473-1.224.715-2.278.715-3.156 0-1.332-.408-2.264-1.2-2.81-.804-.547-2.26-.867-4.38-.973v-3.197c.96.08 1.98.134 3.092.173 1.11.04 2.794.068 5.042.068 1.174 0 3.269-.04 6.295-.121.548-.027.956-.04 1.226-.04.382 0 .65-.013.83-.027a7.18 7.18 0 00.523-.053v3.236c-1.328.213-2.439.653-3.358 1.319-.907.679-1.75 1.693-2.527 3.05l-14.11 24.216v11.428c0 2.863.524 4.808 1.583 5.82 1.06 1.013 3.09 1.519 6.077 1.519l-.038 3.276c-1.94-.079-4.022-.146-6.243-.185a387.186 387.186 0 00-7.074-.054c-4.187 0-7.201.013-9.027.054-1.84.039-3.447.106-4.813.185zM99.356 99.086l-2.432.468-1.375-3.104h-4.22l-1.392 3.104-2.366-.451 5.892-12.381zm-4.651-4.708l-1.242-2.798-1.257 2.798zm15.932 1.64c0 .944-.314 1.703-.945 2.28-.705.655-1.737.983-3.095.983h-3.723V87.436l2.88-.07c1.621 0 2.797.363 3.525 1.089.541.54.81 1.266.81 2.174 0 .555-.117 1.043-.354 1.469-.238.426-.6.767-1.085 1.019.595.196 1.065.529 1.407 1.001.386.518.58 1.152.58 1.9zm-2.865-5.094c0-.357-.11-.65-.33-.881-.276-.288-.668-.431-1.175-.431h-1.042v2.642h1.075c.463 0 .824-.136 1.084-.406.26-.27.388-.579.388-.924zm.514 4.68a1.26 1.26 0 00-.413-.968c-.322-.3-.773-.45-1.358-.45h-1.29v2.85h1.29c.53 0 .943-.108 1.242-.327.352-.265.529-.634.529-1.106zm14.061-5.924h-2.78v9.497l-2.35.208V89.68h-3.13l.596-2.244h7.664zm15.666 3.687c0 1.713-.595 3.17-1.787 4.38-1.192 1.206-2.632 1.81-4.32 1.81-1.7 0-3.143-.598-4.33-1.792-1.185-1.197-1.778-2.663-1.778-4.398 0-1.712.595-3.171 1.787-4.38 1.192-1.206 2.633-1.81 4.32-1.81 1.7 0 3.143.598 4.328 1.792 1.187 1.198 1.78 2.663 1.78 4.398zm-2.35 0c0-1.068-.367-1.977-1.1-2.732-.735-.75-1.62-1.127-2.657-1.127-1.038 0-1.923.378-2.657 1.128-.734.754-1.1 1.664-1.1 2.73 0 1.07.366 1.978 1.1 2.732.734.751 1.62 1.13 2.657 1.13s1.922-.379 2.656-1.13c.734-.754 1.101-1.662 1.101-2.731zm13.945-2.15c0 1.1-.348 2-1.043 2.7-.772.78-1.854 1.168-3.244 1.168h-.678v4.093l-2.351.207v-11.95c.264 0 .758-.014 1.481-.043a57.023 57.023 0 011.233-.042c1.722 0 2.97.445 3.74 1.34.576.666.862 1.508.862 2.528zm-2.351 0c0-.414-.116-.76-.348-1.035-.33-.392-.838-.589-1.521-.589h-.745v3.248c.11.024.214.035.313.035h.316c.705 0 1.23-.184 1.572-.554a1.57 1.57 0 00.413-1.104zm14.624 5.042l-.38 2.867a5.782 5.782 0 01-1.243.345 6.988 6.988 0 01-1.025.087c-1.612 0-2.996-.593-4.155-1.775-1.16-1.187-1.738-2.657-1.738-4.416 0-1.827.619-3.339 1.854-4.535 1.147-1.103 2.472-1.655 3.973-1.655.783 0 1.544.149 2.284.446l.365 2.8a3.65 3.65 0 00-1.217-.702 3.865 3.865 0 00-1.217-.213 3.516 3.516 0 00-2.615 1.102c-.718.737-1.076 1.66-1.076 2.774s.366 2.032 1.1 2.758c.735.722 1.614 1.085 2.64 1.085.41 0 .822-.076 1.241-.224a3.68 3.68 0 001.21-.744zm13.102 2.467l-2.319.863-4.02-6.386h-.084v5.975l-2.351.207v-11.95l2.35-.206v5.56h.084l4.137-5.618 2.169.897-3.774 4.928zm14.06.36l-2.433.468-1.374-3.104h-4.22l-1.392 3.104-2.366-.451 5.892-12.381zm-4.652-4.708l-1.24-2.798-1.259 2.798zm15.568 4.8l-2.351.207v-6.078l-3.593 6.145-2.366-.726 2.915-4.645a3.24 3.24 0 01-1.475-1.166c-.364-.524-.546-1.159-.546-1.904 0-.9.237-1.653.712-2.263.75-.956 2.014-1.433 3.79-1.433.133 0 .734.029 1.804.087.431.023.8.034 1.11.034zm-2.351-6.475V89.56h-.679c-.793 0-1.356.184-1.688.555-.23.256-.346.59-.346 1.007 0 .452.17.829.513 1.13.341.3.793.45 1.356.45zm22.85 6.578l-2.317.294-1.041-6.302-3.146 6.472-3.161-6.386-1.011 6.216-2.3-.294 2.366-12.507 4.123 8.409 4.105-8.41zm10.967-2.244l-.763 2.244h-6.537V87.436h6.24l.48 2.244h-4.37v2.4h3.493v2.177h-3.492v2.78zm11.76-1.45c0 1.116-.373 2.011-1.118 2.684-.745.673-1.713 1.01-2.905 1.01h-3.74V87.436h6.405l.43 2.244h-4.485v2.245h1.16c1.445 0 2.536.374 3.275 1.123.652.656.978 1.502.978 2.538zm-2.35-.053c0-.402-.14-.736-.415-1.002-.341-.321-.85-.483-1.522-.483h-1.126v2.988h1.34c.586 0 1.033-.173 1.34-.518.256-.288.382-.616.382-.985zm14.143 1.503l-.762 2.244h-6.539V87.436h6.24l.481 2.244h-4.368v2.4h3.49v2.177h-3.49v2.78zm12.786 2.261l-2.45.26-2.581-7.115-2.534 7.115-2.382-.277 4.965-12.559zm11.43-3.712c0 1.117-.373 2.012-1.118 2.685-.745.673-1.713 1.01-2.905 1.01h-3.74V87.436l2.35-.207v4.575h.993c1.5 0 2.637.392 3.41 1.175.674.679 1.01 1.548 1.01 2.607zm-2.352-.052c0-.415-.155-.765-.47-1.054-.314-.287-.76-.43-1.332-.43h-1.259v2.987h1.34c.542 0 .963-.148 1.267-.441a1.42 1.42 0 00.454-1.062z" fill="#03c8f5" fill-rule="evenodd"/><path d="M61.191 4.485v.184l2.615 9.672 15.291-.017 2.531-9.863c-1.326.186-.459 1.35-.421 1.443-.238.23-.396.54-.608.79a8.527 8.527 0 01-.692.717c-.46.438-1.206.955-2.091.683-1.168-.36-1.555-2.421-1.622-3.91 1.749-.892-.605-2.14-.714-.79-.028.35.032.347.284.614.13.137.06.025.163.177-.616 1.474-1.072 3.18-2.462 2.95-1.16-.191-1.584-2.294-1.882-3.453.274-.224.556-.308.498-.793a.656.656 0 00-.713-.584c-.368.026-1.178.564-.082 1.377-.257 1.307-.759 3.32-1.948 3.46-1.502.179-1.646-1.66-2.38-2.957.18-.254.52-.39.433-.868-.216-1.194-2.413-.094-.7.868-.118 2.78-1.218 5.33-3.774 3.204-.509-.424-.724-.959-1.22-1.456.008-.02.85-1.485-.506-1.448z" fill="#fff" fill-rule="evenodd"/><path d="M288.514 92.554h67.636v2.415h-67.636zm-276.367 0h67.636v2.415H12.147z" fill="#03c8f5" fill-rule="evenodd"/></symbol><symbol id="phone" viewBox="0 0 14 14"><path d="M2.965 6.093a11.361 11.361 0 004.942 4.942l1.65-1.65a.746.746 0 01.765-.18c.84.277 1.748.428 2.678.428.412 0 .75.337.75.75V13c0 .412-.338.75-.75.75C5.957 13.75.25 8.043.25 1 .25.588.588.25 1 .25h2.625c.412 0 .75.338.75.75 0 .938.15 1.837.428 2.678a.753.753 0 01-.188.764l-1.65 1.65z" fill="#fff"/></symbol><symbol id="portfolio-arrow" viewBox="0 0 27 12"><path d="M21.09.667l-.928.94 3.677 3.726H0v1.334h23.84l-3.678 3.726.929.94L26.364 6 21.09.667z" fill="#fff"/></symbol></svg>